<svg xmlns="http://www.w3.org/2000/svg" version="1.1" xmlns:xlink="http://www.w3.org/1999/xlink" xmlns:svgjs="http://svgjs.dev/svgjs" width="1440" height="560" preserveAspectRatio="none" viewBox="0 0 1440 560"><g mask="url(&quot;#SvgjsMask1000&quot;)" fill="none"><rect width="1440" height="560" x="0" y="0" fill="#0e2a47"></rect><path d="M474.55 392.26 a47.45 47.45 0 1 0 94.9 0 a47.45 47.45 0 1 0 -94.9 0z" stroke="#037b0b"></path><path d="M804.61 166.32a22.01 22.01 0 1 0 24.98-36.25z" fill="#e73635"></path><path d="M1370.16 207.13a38.15 38.15 0 1 0-62.19 44.2z" stroke="#d3b714"></path><path d="M362.79 155.58L375.45 155.58L375.45 168.24L362.79 168.24z" fill="#d3b714"></path><path d="M507.75 44.96a5.59 5.59 0 1 0 7.01 8.71z" fill="#d3b714"></path><path d="M1174.22 571.39a42.42 42.42 0 1 0 75.8-38.1z" stroke="#037b0b"></path><path d="M1115.5 307.75L1131.4 307.75L1131.4 319.33L1115.5 319.33z" stroke="#d3b714"></path><path d="M488.93 4.16 a14.45 14.45 0 1 0 28.9 0 a14.45 14.45 0 1 0 -28.9 0z" fill="#e73635"></path><path d="M743.05 532.01L755.65 532.01L755.65 540.44L743.05 540.44z" stroke="#e73635"></path><path d="M634.1 121.27L682.28 121.27L682.28 169.45L634.1 169.45z" stroke="#d3b714"></path><path d="M1061.23 270.98L1101.47 270.98L1101.47 309.12L1061.23 309.12z" stroke="#d3b714"></path><path d="M338.36 507.54L356.12 507.54L356.12 524.4L338.36 524.4z" stroke="#e73635"></path><path d="M531.88 41.27L565.24 41.27L565.24 74.63L531.88 74.63z" stroke="#e73635"></path><path d="M616.28 382.65L643.26 382.65L643.26 409.63L616.28 409.63z" stroke="#e73635"></path><path d="M515.21 467.88L549.47 467.88L549.47 507.1L515.21 507.1z" fill="#d3b714"></path><path d="M266.96 98.19 a53.28 53.28 0 1 0 106.56 0 a53.28 53.28 0 1 0 -106.56 0z" stroke="#037b0b"></path><path d="M685.47 17.45 a14.23 14.23 0 1 0 28.46 0 a14.23 14.23 0 1 0 -28.46 0z" fill="#037b0b"></path><path d="M421.24 426.91L449.28 426.91L449.28 450.33L421.24 450.33z" fill="#d3b714"></path><path d="M283.57 253.63L319.7 253.63L319.7 289.76L283.57 289.76z" stroke="#d3b714"></path><path d="M170.6 23.58L172.38 23.58L172.38 35.15L170.6 35.15z" fill="#d3b714"></path><path d="M1160.3 485.95L1180.35 485.95L1180.35 506L1160.3 506z" stroke="#d3b714"></path><path d="M428.98 252.52 a0.59 0.59 0 1 0 1.18 0 a0.59 0.59 0 1 0 -1.18 0z" stroke="#037b0b"></path><path d="M455.27 54.57a21.68 21.68 0 1 0-33.18-27.9z" stroke="#037b0b"></path><path d="M235.62 261.31L253.45 261.31L253.45 279.14L235.62 279.14z" fill="#037b0b"></path><path d="M781.54 205.1a51.75 51.75 0 1 0 101.06 22.34z" fill="#037b0b"></path><path d="M1338.13 30.14 a6.45 6.45 0 1 0 12.9 0 a6.45 6.45 0 1 0 -12.9 0z" stroke="#d3b714"></path><path d="M1324.42 271.77L1340.52 271.77L1340.52 327.1L1324.42 327.1z" stroke="#e73635"></path><path d="M269.92 490.51L317.14 490.51L317.14 537.73L269.92 537.73z" fill="#037b0b"></path><path d="M707.85 241.73L734.58 241.73L734.58 286.59L707.85 286.59z" fill="#d3b714"></path><path d="M1246.43 533.25 a51.84 51.84 0 1 0 103.68 0 a51.84 51.84 0 1 0 -103.68 0z" fill="#e73635"></path><path d="M350.41 151.02 a46.76 46.76 0 1 0 93.52 0 a46.76 46.76 0 1 0 -93.52 0z" fill="#e73635"></path><path d="M1413.54 12.73L1456.17 12.73L1456.17 55.36L1413.54 55.36z" stroke="#d3b714"></path><path d="M1321 159.5 a21.98 21.98 0 1 0 43.96 0 a21.98 21.98 0 1 0 -43.96 0z" stroke="#e73635"></path></g><defs><mask id="SvgjsMask1000"><rect width="1440" height="560" fill="#ffffff"></rect></mask></defs></svg>