<svg xmlns="http://www.w3.org/2000/svg" version="1.1" xmlns:xlink="http://www.w3.org/1999/xlink" xmlns:svgjs="http://svgjs.dev/svgjs" width="1440" height="250" preserveAspectRatio="none" viewBox="0 0 1440 250"><g mask="url(&quot;#SvgjsMask1003&quot;)" fill="none"><rect width="1440" height="250" x="0" y="0" fill="#0e2a47"></rect><path d="M27 250L277 0L400 0L150 250z" fill="url(&quot;#SvgjsLinearGradient1004&quot;)"></path><path d="M273.6 250L523.6 0L783.1 0L533.1 250z" fill="url(&quot;#SvgjsLinearGradient1004&quot;)"></path><path d="M498.20000000000005 250L748.2 0L829.2 0L579.2 250z" fill="url(&quot;#SvgjsLinearGradient1004&quot;)"></path><path d="M738.8000000000001 250L988.8000000000001 0L1189.8000000000002 0L939.8000000000001 250z" fill="url(&quot;#SvgjsLinearGradient1004&quot;)"></path><path d="M1413 250L1163 0L1058 0L1308 250z" fill="url(&quot;#SvgjsLinearGradient1005&quot;)"></path><path d="M1194.4 250L944.4000000000001 0L767.4000000000001 0L1017.4000000000001 250z" fill="url(&quot;#SvgjsLinearGradient1005&quot;)"></path><path d="M958.8 250L708.8 0L371.29999999999995 0L621.3 250z" fill="url(&quot;#SvgjsLinearGradient1005&quot;)"></path><path d="M696.1999999999999 250L446.19999999999993 0L213.69999999999993 0L463.69999999999993 250z" fill="url(&quot;#SvgjsLinearGradient1005&quot;)"></path><path d="M1210.2589789676426 250L1440 20.258978967642662L1440 250z" fill="url(&quot;#SvgjsLinearGradient1004&quot;)"></path><path d="M0 250L229.74102103235734 250L 0 20.258978967642662z" fill="url(&quot;#SvgjsLinearGradient1005&quot;)"></path></g><defs><mask id="SvgjsMask1003"><rect width="1440" height="250" fill="#ffffff"></rect></mask><linearGradient x1="0%" y1="100%" x2="100%" y2="0%" id="SvgjsLinearGradient1004"><stop stop-color="rgba(15, 70, 185, 0.2)" offset="0"></stop><stop stop-opacity="0" stop-color="rgba(15, 70, 185, 0.2)" offset="0.66"></stop></linearGradient><linearGradient x1="100%" y1="100%" x2="0%" y2="0%" id="SvgjsLinearGradient1005"><stop stop-color="rgba(15, 70, 185, 0.2)" offset="0"></stop><stop stop-opacity="0" stop-color="rgba(15, 70, 185, 0.2)" offset="0.66"></stop></linearGradient></defs></svg>