<svg xmlns="http://www.w3.org/2000/svg" version="1.1" xmlns:xlink="http://www.w3.org/1999/xlink" xmlns:svgjs="http://svgjs.dev/svgjs" width="1440" height="560" preserveAspectRatio="none" viewBox="0 0 1440 560"><g mask="url(&quot;#SvgjsMask1004&quot;)" fill="none"><rect width="1440" height="560" x="0" y="0" fill="url(&quot;#SvgjsLinearGradient1005&quot;)"></rect><path d="M1440 0L769.65 0L1440 224.18z" fill="rgba(255, 255, 255, .1)"></path><path d="M769.65 0L1440 224.18L1440 300.05L594.5799999999999 0z" fill="rgba(255, 255, 255, .075)"></path><path d="M594.5799999999999 0L1440 300.05L1440 407.42L493.91999999999996 0z" fill="rgba(255, 255, 255, .05)"></path><path d="M493.91999999999996 0L1440 407.42L1440 465.34000000000003L175.47999999999996 0z" fill="rgba(255, 255, 255, .025)"></path><path d="M0 560L593.18 560L0 493.69z" fill="rgba(0, 0, 0, .1)"></path><path d="M0 493.69L593.18 560L956.42 560L0 420.15999999999997z" fill="rgba(0, 0, 0, .075)"></path><path d="M0 420.15999999999997L956.42 560L1123.6 560L0 217.68999999999997z" fill="rgba(0, 0, 0, .05)"></path><path d="M0 217.69L1123.6 560L1223.6299999999999 560L0 136.75z" fill="rgba(0, 0, 0, .025)"></path></g><defs><mask id="SvgjsMask1004"><rect width="1440" height="560" fill="#ffffff"></rect></mask><linearGradient x1="15.28%" y1="-39.29%" x2="84.72%" y2="139.29%" gradientUnits="userSpaceOnUse" id="SvgjsLinearGradient1005"><stop stop-color="#0e2a47" offset="0"></stop><stop stop-color="rgba(0, 69, 158, 0.43)" offset="1"></stop></linearGradient></defs></svg>