<svg xmlns="http://www.w3.org/2000/svg" version="1.1" xmlns:xlink="http://www.w3.org/1999/xlink" xmlns:svgjs="http://svgjs.dev/svgjs" width="1440" height="560" preserveAspectRatio="none" viewBox="0 0 1440 560"><g mask="url(&quot;#SvgjsMask1000&quot;)" fill="none"><rect width="1440" height="560" x="0" y="0" fill="#0e2a47"></rect><path d="M104.44 85.15L169.4 122.65L169.4 197.65L104.44 235.15L39.49 197.65L39.49 122.65zM104.44 535.15L169.4 572.65L169.4 647.65L104.44 685.15L39.49 647.65L39.49 572.65zM234.35 85.15L299.31 122.65L299.31 197.65L234.35 235.15L169.4 197.65L169.4 122.65zM169.4 197.65L234.35 235.15L234.35 310.15L169.4 347.65L104.44 310.15L104.44 235.15zM234.35 310.15L299.31 347.65L299.31 422.65L234.35 460.15L169.4 422.65L169.4 347.65zM234.35 535.15L299.31 572.65L299.31 647.65L234.35 685.15L169.4 647.65L169.4 572.65zM299.31 422.65L364.26 460.15L364.26 535.15L299.31 572.65L234.35 535.15L234.35 460.15zM429.21 -27.35L494.17 10.15L494.17 85.15L429.21 122.65L364.26 85.15L364.26 10.15zM494.17 85.15L559.12 122.65L559.12 197.65L494.17 235.15L429.21 197.65L429.21 122.65zM429.21 197.65L494.17 235.15L494.17 310.15L429.21 347.65L364.26 310.15L364.26 235.15zM559.12 197.65L624.07 235.15L624.07 310.15L559.12 347.65L494.17 310.15L494.17 235.15zM624.07 535.15L689.03 572.65L689.03 647.65L624.07 685.15L559.12 647.65L559.12 572.65zM689.03 197.65L753.98 235.15L753.98 310.15L689.03 347.65L624.07 310.15L624.07 235.15zM883.89 535.15L948.84 572.65L948.84 647.65L883.89 685.15L818.93 647.65L818.93 572.65zM1013.8 85.15L1078.75 122.65L1078.75 197.65L1013.8 235.15L948.84 197.65L948.84 122.65zM948.84 197.65L1013.8 235.15L1013.8 310.15L948.84 347.65L883.89 310.15L883.89 235.15zM1013.8 310.15L1078.75 347.65L1078.75 422.65L1013.8 460.15L948.84 422.65L948.84 347.65zM948.84 422.65L1013.8 460.15L1013.8 535.15L948.84 572.65L883.89 535.15L883.89 460.15zM1013.8 535.15L1078.75 572.65L1078.75 647.65L1013.8 685.15L948.84 647.65L948.84 572.65zM1078.75 -27.35L1143.7 10.15L1143.7 85.15L1078.75 122.65L1013.8 85.15L1013.8 10.15zM1273.61 85.15L1338.56 122.65L1338.56 197.65L1273.61 235.15L1208.66 197.65L1208.66 122.65zM1208.66 197.65L1273.61 235.15L1273.61 310.15L1208.66 347.65L1143.7 310.15L1143.7 235.15zM1208.66 422.65L1273.61 460.15L1273.61 535.15L1208.66 572.65L1143.7 535.15L1143.7 460.15zM1338.57 -27.35L1403.52 10.15L1403.52 85.15L1338.57 122.65L1273.61 85.15L1273.61 10.15zM1338.57 197.65L1403.52 235.15L1403.52 310.15L1338.57 347.65L1273.61 310.15L1273.61 235.15zM1403.52 535.15L1468.47 572.65L1468.47 647.65L1403.52 685.15L1338.57 647.65L1338.57 572.65z" stroke="#03305d" stroke-width="2"></path><path d="M96.94 85.15 a7.5 7.5 0 1 0 15 0 a7.5 7.5 0 1 0 -15 0zM161.9 122.65 a7.5 7.5 0 1 0 15 0 a7.5 7.5 0 1 0 -15 0zM161.9 197.65 a7.5 7.5 0 1 0 15 0 a7.5 7.5 0 1 0 -15 0zM96.94 235.15 a7.5 7.5 0 1 0 15 0 a7.5 7.5 0 1 0 -15 0zM31.99 197.65 a7.5 7.5 0 1 0 15 0 a7.5 7.5 0 1 0 -15 0zM31.99 122.65 a7.5 7.5 0 1 0 15 0 a7.5 7.5 0 1 0 -15 0zM96.94 535.15 a7.5 7.5 0 1 0 15 0 a7.5 7.5 0 1 0 -15 0zM161.9 572.65 a7.5 7.5 0 1 0 15 0 a7.5 7.5 0 1 0 -15 0zM161.9 647.65 a7.5 7.5 0 1 0 15 0 a7.5 7.5 0 1 0 -15 0zM96.94 685.15 a7.5 7.5 0 1 0 15 0 a7.5 7.5 0 1 0 -15 0zM31.99 647.65 a7.5 7.5 0 1 0 15 0 a7.5 7.5 0 1 0 -15 0zM31.99 572.65 a7.5 7.5 0 1 0 15 0 a7.5 7.5 0 1 0 -15 0zM226.85 85.15 a7.5 7.5 0 1 0 15 0 a7.5 7.5 0 1 0 -15 0zM291.81 122.65 a7.5 7.5 0 1 0 15 0 a7.5 7.5 0 1 0 -15 0zM291.81 197.65 a7.5 7.5 0 1 0 15 0 a7.5 7.5 0 1 0 -15 0zM226.85 235.15 a7.5 7.5 0 1 0 15 0 a7.5 7.5 0 1 0 -15 0zM226.85 310.15 a7.5 7.5 0 1 0 15 0 a7.5 7.5 0 1 0 -15 0zM161.9 347.65 a7.5 7.5 0 1 0 15 0 a7.5 7.5 0 1 0 -15 0zM96.94 310.15 a7.5 7.5 0 1 0 15 0 a7.5 7.5 0 1 0 -15 0zM291.81 347.65 a7.5 7.5 0 1 0 15 0 a7.5 7.5 0 1 0 -15 0zM291.81 422.65 a7.5 7.5 0 1 0 15 0 a7.5 7.5 0 1 0 -15 0zM226.85 460.15 a7.5 7.5 0 1 0 15 0 a7.5 7.5 0 1 0 -15 0zM161.9 422.65 a7.5 7.5 0 1 0 15 0 a7.5 7.5 0 1 0 -15 0zM226.85 535.15 a7.5 7.5 0 1 0 15 0 a7.5 7.5 0 1 0 -15 0zM291.81 572.65 a7.5 7.5 0 1 0 15 0 a7.5 7.5 0 1 0 -15 0zM291.81 647.65 a7.5 7.5 0 1 0 15 0 a7.5 7.5 0 1 0 -15 0zM226.85 685.15 a7.5 7.5 0 1 0 15 0 a7.5 7.5 0 1 0 -15 0zM356.76 460.15 a7.5 7.5 0 1 0 15 0 a7.5 7.5 0 1 0 -15 0zM356.76 535.15 a7.5 7.5 0 1 0 15 0 a7.5 7.5 0 1 0 -15 0zM421.71 -27.35 a7.5 7.5 0 1 0 15 0 a7.5 7.5 0 1 0 -15 0zM486.67 10.15 a7.5 7.5 0 1 0 15 0 a7.5 7.5 0 1 0 -15 0zM486.67 85.15 a7.5 7.5 0 1 0 15 0 a7.5 7.5 0 1 0 -15 0zM421.71 122.65 a7.5 7.5 0 1 0 15 0 a7.5 7.5 0 1 0 -15 0zM356.76 85.15 a7.5 7.5 0 1 0 15 0 a7.5 7.5 0 1 0 -15 0zM356.76 10.15 a7.5 7.5 0 1 0 15 0 a7.5 7.5 0 1 0 -15 0zM551.62 122.65 a7.5 7.5 0 1 0 15 0 a7.5 7.5 0 1 0 -15 0zM551.62 197.65 a7.5 7.5 0 1 0 15 0 a7.5 7.5 0 1 0 -15 0zM486.67 235.15 a7.5 7.5 0 1 0 15 0 a7.5 7.5 0 1 0 -15 0zM421.71 197.65 a7.5 7.5 0 1 0 15 0 a7.5 7.5 0 1 0 -15 0zM486.67 310.15 a7.5 7.5 0 1 0 15 0 a7.5 7.5 0 1 0 -15 0zM421.71 347.65 a7.5 7.5 0 1 0 15 0 a7.5 7.5 0 1 0 -15 0zM356.76 310.15 a7.5 7.5 0 1 0 15 0 a7.5 7.5 0 1 0 -15 0zM356.76 235.15 a7.5 7.5 0 1 0 15 0 a7.5 7.5 0 1 0 -15 0zM616.57 235.15 a7.5 7.5 0 1 0 15 0 a7.5 7.5 0 1 0 -15 0zM616.57 310.15 a7.5 7.5 0 1 0 15 0 a7.5 7.5 0 1 0 -15 0zM551.62 347.65 a7.5 7.5 0 1 0 15 0 a7.5 7.5 0 1 0 -15 0zM616.57 535.15 a7.5 7.5 0 1 0 15 0 a7.5 7.5 0 1 0 -15 0zM681.53 572.65 a7.5 7.5 0 1 0 15 0 a7.5 7.5 0 1 0 -15 0zM681.53 647.65 a7.5 7.5 0 1 0 15 0 a7.5 7.5 0 1 0 -15 0zM616.57 685.15 a7.5 7.5 0 1 0 15 0 a7.5 7.5 0 1 0 -15 0zM551.62 647.65 a7.5 7.5 0 1 0 15 0 a7.5 7.5 0 1 0 -15 0zM551.62 572.65 a7.5 7.5 0 1 0 15 0 a7.5 7.5 0 1 0 -15 0zM681.53 197.65 a7.5 7.5 0 1 0 15 0 a7.5 7.5 0 1 0 -15 0zM746.48 235.15 a7.5 7.5 0 1 0 15 0 a7.5 7.5 0 1 0 -15 0zM746.48 310.15 a7.5 7.5 0 1 0 15 0 a7.5 7.5 0 1 0 -15 0zM681.53 347.65 a7.5 7.5 0 1 0 15 0 a7.5 7.5 0 1 0 -15 0zM876.39 535.15 a7.5 7.5 0 1 0 15 0 a7.5 7.5 0 1 0 -15 0zM941.34 572.65 a7.5 7.5 0 1 0 15 0 a7.5 7.5 0 1 0 -15 0zM941.34 647.65 a7.5 7.5 0 1 0 15 0 a7.5 7.5 0 1 0 -15 0zM876.39 685.15 a7.5 7.5 0 1 0 15 0 a7.5 7.5 0 1 0 -15 0zM811.43 647.65 a7.5 7.5 0 1 0 15 0 a7.5 7.5 0 1 0 -15 0zM811.43 572.65 a7.5 7.5 0 1 0 15 0 a7.5 7.5 0 1 0 -15 0zM1006.3 85.15 a7.5 7.5 0 1 0 15 0 a7.5 7.5 0 1 0 -15 0zM1071.25 122.65 a7.5 7.5 0 1 0 15 0 a7.5 7.5 0 1 0 -15 0zM1071.25 197.65 a7.5 7.5 0 1 0 15 0 a7.5 7.5 0 1 0 -15 0zM1006.3 235.15 a7.5 7.5 0 1 0 15 0 a7.5 7.5 0 1 0 -15 0zM941.34 197.65 a7.5 7.5 0 1 0 15 0 a7.5 7.5 0 1 0 -15 0zM941.34 122.65 a7.5 7.5 0 1 0 15 0 a7.5 7.5 0 1 0 -15 0zM1006.3 310.15 a7.5 7.5 0 1 0 15 0 a7.5 7.5 0 1 0 -15 0zM941.34 347.65 a7.5 7.5 0 1 0 15 0 a7.5 7.5 0 1 0 -15 0zM876.39 310.15 a7.5 7.5 0 1 0 15 0 a7.5 7.5 0 1 0 -15 0zM876.39 235.15 a7.5 7.5 0 1 0 15 0 a7.5 7.5 0 1 0 -15 0zM1071.25 347.65 a7.5 7.5 0 1 0 15 0 a7.5 7.5 0 1 0 -15 0zM1071.25 422.65 a7.5 7.5 0 1 0 15 0 a7.5 7.5 0 1 0 -15 0zM1006.3 460.15 a7.5 7.5 0 1 0 15 0 a7.5 7.5 0 1 0 -15 0zM941.34 422.65 a7.5 7.5 0 1 0 15 0 a7.5 7.5 0 1 0 -15 0zM1006.3 535.15 a7.5 7.5 0 1 0 15 0 a7.5 7.5 0 1 0 -15 0zM876.39 460.15 a7.5 7.5 0 1 0 15 0 a7.5 7.5 0 1 0 -15 0zM1071.25 572.65 a7.5 7.5 0 1 0 15 0 a7.5 7.5 0 1 0 -15 0zM1071.25 647.65 a7.5 7.5 0 1 0 15 0 a7.5 7.5 0 1 0 -15 0zM1006.3 685.15 a7.5 7.5 0 1 0 15 0 a7.5 7.5 0 1 0 -15 0zM1071.25 -27.35 a7.5 7.5 0 1 0 15 0 a7.5 7.5 0 1 0 -15 0zM1136.2 10.15 a7.5 7.5 0 1 0 15 0 a7.5 7.5 0 1 0 -15 0zM1136.2 85.15 a7.5 7.5 0 1 0 15 0 a7.5 7.5 0 1 0 -15 0zM1006.3 10.15 a7.5 7.5 0 1 0 15 0 a7.5 7.5 0 1 0 -15 0zM1266.11 85.15 a7.5 7.5 0 1 0 15 0 a7.5 7.5 0 1 0 -15 0zM1331.06 122.65 a7.5 7.5 0 1 0 15 0 a7.5 7.5 0 1 0 -15 0zM1331.06 197.65 a7.5 7.5 0 1 0 15 0 a7.5 7.5 0 1 0 -15 0zM1266.11 235.15 a7.5 7.5 0 1 0 15 0 a7.5 7.5 0 1 0 -15 0zM1201.16 197.65 a7.5 7.5 0 1 0 15 0 a7.5 7.5 0 1 0 -15 0zM1201.16 122.65 a7.5 7.5 0 1 0 15 0 a7.5 7.5 0 1 0 -15 0zM1266.11 310.15 a7.5 7.5 0 1 0 15 0 a7.5 7.5 0 1 0 -15 0zM1201.16 347.65 a7.5 7.5 0 1 0 15 0 a7.5 7.5 0 1 0 -15 0zM1136.2 310.15 a7.5 7.5 0 1 0 15 0 a7.5 7.5 0 1 0 -15 0zM1136.2 235.15 a7.5 7.5 0 1 0 15 0 a7.5 7.5 0 1 0 -15 0zM1201.16 422.65 a7.5 7.5 0 1 0 15 0 a7.5 7.5 0 1 0 -15 0zM1266.11 460.15 a7.5 7.5 0 1 0 15 0 a7.5 7.5 0 1 0 -15 0zM1266.11 535.15 a7.5 7.5 0 1 0 15 0 a7.5 7.5 0 1 0 -15 0zM1201.16 572.65 a7.5 7.5 0 1 0 15 0 a7.5 7.5 0 1 0 -15 0zM1136.2 535.15 a7.5 7.5 0 1 0 15 0 a7.5 7.5 0 1 0 -15 0zM1136.2 460.15 a7.5 7.5 0 1 0 15 0 a7.5 7.5 0 1 0 -15 0zM1331.07 -27.35 a7.5 7.5 0 1 0 15 0 a7.5 7.5 0 1 0 -15 0zM1396.02 10.15 a7.5 7.5 0 1 0 15 0 a7.5 7.5 0 1 0 -15 0zM1396.02 85.15 a7.5 7.5 0 1 0 15 0 a7.5 7.5 0 1 0 -15 0zM1331.07 122.65 a7.5 7.5 0 1 0 15 0 a7.5 7.5 0 1 0 -15 0zM1266.11 10.15 a7.5 7.5 0 1 0 15 0 a7.5 7.5 0 1 0 -15 0zM1331.07 197.65 a7.5 7.5 0 1 0 15 0 a7.5 7.5 0 1 0 -15 0zM1396.02 235.15 a7.5 7.5 0 1 0 15 0 a7.5 7.5 0 1 0 -15 0zM1396.02 310.15 a7.5 7.5 0 1 0 15 0 a7.5 7.5 0 1 0 -15 0zM1331.07 347.65 a7.5 7.5 0 1 0 15 0 a7.5 7.5 0 1 0 -15 0zM1396.02 535.15 a7.5 7.5 0 1 0 15 0 a7.5 7.5 0 1 0 -15 0zM1460.97 572.65 a7.5 7.5 0 1 0 15 0 a7.5 7.5 0 1 0 -15 0zM1460.97 647.65 a7.5 7.5 0 1 0 15 0 a7.5 7.5 0 1 0 -15 0zM1396.02 685.15 a7.5 7.5 0 1 0 15 0 a7.5 7.5 0 1 0 -15 0zM1331.07 647.65 a7.5 7.5 0 1 0 15 0 a7.5 7.5 0 1 0 -15 0zM1331.07 572.65 a7.5 7.5 0 1 0 15 0 a7.5 7.5 0 1 0 -15 0z" fill="#03305d"></path><path d="M15.95 -29.97L59.25 -4.97L59.25 45.03L15.95 70.03L-27.35 45.03L-27.35 -4.97zM15.95 120.03L59.25 145.03L59.25 195.03L15.95 220.03L-27.35 195.03L-27.35 145.03zM59.25 195.03L102.56 220.03L102.56 270.03L59.25 295.03L15.95 270.03L15.95 220.03zM59.25 345.03L102.56 370.03L102.56 420.03L59.25 445.03L15.95 420.03L15.95 370.03zM145.86 45.03L189.16 70.03L189.16 120.03L145.86 145.03L102.56 120.03L102.56 70.03zM102.56 270.03L145.86 295.03L145.86 345.03L102.56 370.03L59.25 345.03L59.25 295.03zM145.86 345.03L189.16 370.03L189.16 420.03L145.86 445.03L102.56 420.03L102.56 370.03zM189.16 -29.97L232.46 -4.97L232.46 45.03L189.16 70.03L145.86 45.03L145.86 -4.97zM232.46 45.03L275.76 70.03L275.76 120.03L232.46 145.03L189.16 120.03L189.16 70.03zM232.46 495.03L275.76 520.03L275.76 570.03L232.46 595.03L189.16 570.03L189.16 520.03zM275.76 120.03L319.07 145.03L319.07 195.03L275.76 220.03L232.46 195.03L232.46 145.03zM319.07 195.03L362.37 220.03L362.37 270.03L319.07 295.03L275.76 270.03L275.76 220.03zM275.76 270.03L319.07 295.03L319.07 345.03L275.76 370.03L232.46 345.03L232.46 295.03zM319.07 345.03L362.37 370.03L362.37 420.03L319.07 445.03L275.76 420.03L275.76 370.03zM405.67 45.03L448.98 70.03L448.98 120.03L405.67 145.03L362.37 120.03L362.37 70.03zM405.67 195.03L448.98 220.03L448.98 270.03L405.67 295.03L362.37 270.03L362.37 220.03zM362.37 270.03L405.67 295.03L405.67 345.03L362.37 370.03L319.07 345.03L319.07 295.03zM362.37 420.03L405.67 445.03L405.67 495.03L362.37 520.03L319.07 495.03L319.07 445.03zM405.67 495.03L448.98 520.03L448.98 570.03L405.67 595.03L362.37 570.03L362.37 520.03zM448.98 -29.97L492.28 -4.97L492.28 45.03L448.98 70.03L405.67 45.03L405.67 -4.97zM448.98 120.03L492.28 145.03L492.28 195.03L448.98 220.03L405.67 195.03L405.67 145.03zM492.28 495.03L535.58 520.03L535.58 570.03L492.28 595.03L448.98 570.03L448.98 520.03zM535.58 270.03L578.88 295.03L578.88 345.03L535.58 370.03L492.28 345.03L492.28 295.03zM665.49 195.03L708.79 220.03L708.79 270.03L665.49 295.03L622.19 270.03L622.19 220.03zM622.19 270.03L665.49 295.03L665.49 345.03L622.19 370.03L578.88 345.03L578.88 295.03zM665.49 495.03L708.79 520.03L708.79 570.03L665.49 595.03L622.19 570.03L622.19 520.03zM708.79 120.03L752.09 145.03L752.09 195.03L708.79 220.03L665.49 195.03L665.49 145.03zM795.4 -29.97L838.7 -4.97L838.7 45.03L795.4 70.03L752.09 45.03L752.09 -4.97zM838.7 195.03L882 220.03L882 270.03L838.7 295.03L795.4 270.03L795.4 220.03zM882 -29.97L925.3 -4.97L925.3 45.03L882 70.03L838.7 45.03L838.7 -4.97zM925.3 45.03L968.61 70.03L968.61 120.03L925.3 145.03L882 120.03L882 70.03zM882 120.03L925.3 145.03L925.3 195.03L882 220.03L838.7 195.03L838.7 145.03zM925.3 345.03L968.61 370.03L968.61 420.03L925.3 445.03L882 420.03L882 370.03zM882 420.03L925.3 445.03L925.3 495.03L882 520.03L838.7 495.03L838.7 445.03zM1011.91 45.03L1055.21 70.03L1055.21 120.03L1011.91 145.03L968.61 120.03L968.61 70.03zM968.61 270.03L1011.91 295.03L1011.91 345.03L968.61 370.03L925.3 345.03L925.3 295.03zM968.61 420.03L1011.91 445.03L1011.91 495.03L968.61 520.03L925.3 495.03L925.3 445.03zM1055.21 120.03L1098.51 145.03L1098.51 195.03L1055.21 220.03L1011.91 195.03L1011.91 145.03zM1055.21 270.03L1098.51 295.03L1098.51 345.03L1055.21 370.03L1011.91 345.03L1011.91 295.03zM1141.82 -29.97L1185.12 -4.97L1185.12 45.03L1141.82 70.03L1098.51 45.03L1098.51 -4.97zM1185.12 45.03L1228.42 70.03L1228.42 120.03L1185.12 145.03L1141.82 120.03L1141.82 70.03zM1185.12 195.03L1228.42 220.03L1228.42 270.03L1185.12 295.03L1141.82 270.03L1141.82 220.03zM1141.82 270.03L1185.12 295.03L1185.12 345.03L1141.82 370.03L1098.51 345.03L1098.51 295.03zM1141.82 420.03L1185.12 445.03L1185.12 495.03L1141.82 520.03L1098.51 495.03L1098.51 445.03zM1228.42 -29.97L1271.72 -4.97L1271.72 45.03L1228.42 70.03L1185.12 45.03L1185.12 -4.97zM1271.72 45.03L1315.03 70.03L1315.03 120.03L1271.72 145.03L1228.42 120.03L1228.42 70.03zM1271.72 195.03L1315.03 220.03L1315.03 270.03L1271.72 295.03L1228.42 270.03L1228.42 220.03zM1271.72 345.03L1315.03 370.03L1315.03 420.03L1271.72 445.03L1228.42 420.03L1228.42 370.03zM1271.72 495.03L1315.03 520.03L1315.03 570.03L1271.72 595.03L1228.42 570.03L1228.42 520.03zM1358.33 495.03L1401.63 520.03L1401.63 570.03L1358.33 595.03L1315.03 570.03L1315.03 520.03zM1401.63 -29.97L1444.93 -4.97L1444.93 45.03L1401.63 70.03L1358.33 45.03L1358.33 -4.97zM1444.93 45.03L1488.24 70.03L1488.24 120.03L1444.93 145.03L1401.63 120.03L1401.63 70.03zM1401.63 120.03L1444.93 145.03L1444.93 195.03L1401.63 220.03L1358.33 195.03L1358.33 145.03zM1444.93 195.03L1488.24 220.03L1488.24 270.03L1444.93 295.03L1401.63 270.03L1401.63 220.03zM1401.63 270.03L1444.93 295.03L1444.93 345.03L1401.63 370.03L1358.33 345.03L1358.33 295.03zM1444.93 495.03L1488.24 520.03L1488.24 570.03L1444.93 595.03L1401.63 570.03L1401.63 520.03z" stroke="rgba(6, 80, 156, 0.93)" stroke-width="2"></path></g><defs><mask id="SvgjsMask1000"><rect width="1440" height="560" fill="#ffffff"></rect></mask></defs></svg>